<?xml version="1.0" standalone="no"?>
<!DOCTYPE svg PUBLIC "-//W3C//DTD SVG 20010904//EN"
 "http://www.w3.org/TR/2001/REC-SVG-20010904/DTD/svg10.dtd">
<svg version="1.0" xmlns="http://www.w3.org/2000/svg"
 width="231.000000pt" height="231.000000pt" viewBox="0 0 231.000000 231.000000"
 preserveAspectRatio="xMidYMid meet">
<metadata>
Created by potrace 1.11, written by Peter Selinger 2001-2013
</metadata>
<g transform="translate(0.000000,231.000000) scale(0.100000,-0.100000)"
fill="#000000" stroke="none">
<path d="M900 2073 c-13 -9 -20 -11 -16 -4 5 8 0 10 -19 7 -15 -3 -30 -8 -33
-10 -3 -3 -12 0 -20 7 -13 9 -14 9 -8 0 7 -13 -10 -18 -43 -13 -8 1 -18 -4
-22 -12 -7 -10 -9 -10 -9 2 0 11 -2 12 -8 3 -4 -7 -19 -15 -32 -17 -14 -2 -25
-5 -25 -6 0 -2 -37 -11 -58 -14 -10 -1 -22 -7 -25 -13 -7 -10 -53 -28 -61 -24
-2 2 -7 -3 -12 -10 -4 -7 -15 -14 -24 -15 -9 -1 -23 -11 -32 -21 -8 -11 -12
-12 -8 -3 4 8 -1 6 -9 -4 -9 -11 -16 -16 -16 -10 0 5 -5 2 -10 -6 -5 -8 -13
-15 -18 -15 -5 0 -16 -8 -26 -17 -10 -10 -22 -18 -27 -18 -6 0 -8 -4 -5 -9 6
-10 -23 -26 -39 -22 -5 2 -7 0 -3 -4 3 -4 -11 -25 -32 -48 -22 -22 -36 -45
-33 -50 3 -6 2 -8 -3 -5 -11 7 -35 -17 -27 -26 3 -3 -2 -8 -11 -12 -9 -3 -13
-10 -10 -15 3 -5 -1 -12 -10 -15 -8 -3 -13 -11 -10 -19 3 -7 -3 -15 -13 -19
-15 -6 -15 -8 -3 -17 13 -8 13 -11 -3 -23 -10 -8 -19 -28 -22 -46 -2 -17 -8
-37 -13 -43 -10 -14 -14 -55 -16 -139 0 -32 -5 -58 -10 -58 -5 0 -1 -7 10 -15
13 -10 14 -14 5 -15 -10 0 -11 -3 -2 -13 6 -8 8 -17 4 -20 -3 -4 -1 -7 7 -7
10 0 10 -3 0 -15 -9 -11 -9 -15 -1 -15 7 0 10 -4 6 -9 -3 -5 0 -13 6 -16 5 -4
8 -13 5 -21 -3 -8 -1 -14 4 -14 6 0 10 -8 10 -17 0 -10 9 -29 20 -43 11 -14
20 -33 20 -42 0 -10 5 -18 10 -18 6 0 10 -6 10 -13 0 -7 16 -29 36 -49 19 -21
33 -42 30 -47 -3 -5 4 -7 16 -4 17 3 19 2 9 -5 -11 -8 -9 -11 8 -17 11 -3 21
-13 21 -21 0 -8 4 -14 10 -14 9 0 18 -6 72 -52 11 -10 29 -20 39 -23 11 -4 19
-11 19 -17 0 -6 3 -9 6 -5 4 3 13 -1 21 -9 8 -8 19 -12 24 -9 10 7 13 -68 2
-79 -4 -3 -8 -14 -9 -24 -4 -44 -15 -80 -37 -123 -13 -27 -19 -46 -13 -43 6 3
4 0 -5 -8 -20 -17 -20 -45 0 -54 26 -12 45 -10 64 5 9 8 17 11 17 6 0 -4 6 -3
13 2 6 6 20 9 30 8 9 -2 15 1 12 5 -3 5 5 12 17 16 13 4 41 18 63 32 22 14 45
25 51 25 7 0 10 6 7 14 -3 7 1 13 9 13 7 0 20 8 28 18 67 80 63 77 113 78 26
0 47 -4 47 -10 0 -5 3 -7 6 -3 4 3 20 -1 36 -9 17 -9 27 -18 24 -21 -3 -3 9
-19 25 -34 17 -16 27 -29 23 -30 -5 0 2 -4 14 -10 13 -5 26 -18 29 -29 3 -11
9 -17 14 -14 5 3 9 0 9 -5 0 -6 9 -11 21 -11 11 0 18 -4 15 -9 -5 -8 22 -25
33 -21 2 1 8 -5 13 -14 5 -9 13 -14 19 -11 5 4 9 1 9 -5 0 -7 7 -10 15 -6 8 3
15 1 15 -4 0 -6 7 -10 15 -10 8 0 15 -5 15 -11 0 -5 4 -8 8 -5 5 3 20 -1 35
-9 14 -7 28 -11 31 -8 3 3 11 2 18 -4 7 -5 23 -8 36 -7 12 0 22 -2 22 -5 0 -4
10 -7 23 -7 12 -1 48 -4 80 -7 34 -4 56 -3 52 3 -3 5 6 5 22 1 16 -5 37 -5 48
-1 11 4 26 3 34 -4 11 -8 13 -8 8 1 -5 7 0 9 13 6 12 -3 19 -8 16 -10 -7 -8
87 -93 101 -93 7 0 13 -4 13 -10 0 -5 7 -10 15 -10 8 0 15 -3 15 -7 0 -5 12
-9 27 -10 15 0 29 -6 31 -12 2 -6 8 -8 13 -5 6 3 16 1 24 -6 10 -8 17 -6 29
12 10 14 12 24 6 26 -6 2 -8 7 -5 12 3 4 -2 13 -10 20 -8 7 -15 23 -15 37 0
17 -4 22 -13 17 -9 -6 -9 -4 1 8 9 11 9 17 2 20 -6 2 -11 14 -12 28 -1 14 -5
30 -10 36 -5 6 0 18 12 29 11 10 20 14 20 10 0 -4 12 5 26 21 15 16 23 22 19
14 -4 -9 -1 -9 8 2 8 10 18 18 23 18 5 0 24 17 43 38 19 20 30 31 26 23 -5 -9
-4 -12 3 -7 7 4 12 13 12 20 0 7 14 28 30 46 17 19 28 40 26 46 -3 7 2 15 11
18 8 4 13 13 9 21 -3 9 1 15 11 15 13 0 13 3 3 15 -10 12 -10 15 0 15 7 0 10
7 6 16 -3 9 -2 12 5 8 6 -3 10 1 9 12 -1 11 -1 24 0 29 7 25 5 155 -2 155 -5
0 -8 10 -8 23 0 13 -6 29 -12 36 -10 11 -10 13 0 7 6 -4 12 -3 12 2 0 6 -6 12
-14 15 -8 3 -17 20 -21 37 -4 17 -13 34 -21 37 -8 3 -12 9 -9 13 3 4 -2 11
-11 14 -8 3 -13 10 -9 15 3 5 -4 12 -15 16 -11 3 -19 9 -17 13 1 4 -10 20 -25
35 -16 16 -28 25 -28 22 0 -3 -8 3 -18 13 -11 9 -17 20 -15 25 3 4 1 7 -4 6
-36 -6 -80 37 -77 74 2 19 -1 25 -9 20 -7 -4 -6 0 2 10 11 14 11 20 0 34 -12
14 -12 16 0 8 11 -6 12 -5 5 6 -4 8 -9 23 -10 34 -1 11 -5 34 -9 50 -3 17 -7
36 -7 43 -1 6 -5 12 -9 12 -5 0 -6 7 -3 15 4 8 2 15 -4 15 -9 0 -19 25 -22 55
-1 6 -8 14 -16 18 -8 4 -14 14 -14 21 0 7 -10 24 -22 38 -45 49 -56 66 -51 72
4 3 -1 6 -10 6 -9 0 -17 7 -17 15 0 8 -4 15 -9 15 -5 0 -25 16 -44 35 -19 19
-40 35 -46 35 -6 0 -11 5 -11 10 0 6 -7 10 -15 10 -8 0 -15 4 -15 9 0 5 -13
14 -30 21 -16 7 -30 17 -30 22 0 6 -7 7 -16 4 -8 -3 -12 -2 -9 4 3 6 1 11 -4
11 -22 3 -27 5 -66 24 -22 10 -49 20 -59 22 -11 2 -26 9 -34 16 -8 6 -25 10
-38 9 -13 -2 -24 0 -24 5 0 4 -12 9 -27 10 -27 1 -68 10 -68 13 0 1 -25 3 -55
5 -30 1 -73 3 -95 5 -22 1 -44 1 -50 0 -25 -5 -41 -5 -51 2 -6 4 -21 0 -34 -9z"/>
</g>
</svg>
